<svg width="19" height="20" viewBox="0 0 19 20" fill="none" xmlns="http://www.w3.org/2000/svg">
<path d="M12.6134 13.3334V15.6667C12.6134 16.6002 12.6134 17.0669 12.4318 17.4234C12.272 17.737 12.017 17.992 11.7034 18.1518C11.3469 18.3334 10.8802 18.3334 9.94678 18.3334H3.61344C2.68002 18.3334 2.21331 18.3334 1.85679 18.1518C1.54319 17.992 1.28822 17.737 1.12843 17.4234C0.946777 17.0669 0.946777 16.6002 0.946777 15.6667V9.33341C0.946777 8.39999 0.946777 7.93328 1.12843 7.57676C1.28822 7.26316 1.54319 7.00819 1.85679 6.8484C2.21331 6.66675 2.68002 6.66675 3.61344 6.66675H5.94678M8.61344 13.3334H14.9468C15.8802 13.3334 16.3469 13.3334 16.7034 13.1518C17.017 12.992 17.272 12.737 17.4318 12.4234C17.6134 12.0669 17.6134 11.6002 17.6134 10.6667V4.33341C17.6134 3.39999 17.6134 2.93328 17.4318 2.57676C17.272 2.26316 17.017 2.00819 16.7034 1.8484C16.3469 1.66675 15.8802 1.66675 14.9468 1.66675H8.61344C7.68002 1.66675 7.21331 1.66675 6.85679 1.8484C6.54319 2.00819 6.28822 2.26316 6.12843 2.57676C5.94678 2.93328 5.94678 3.39999 5.94678 4.33341V10.6667C5.94678 11.6002 5.94678 12.0669 6.12843 12.4234C6.28822 12.737 6.54319 12.992 6.85679 13.1518C7.21331 13.3334 7.68002 13.3334 8.61344 13.3334Z" stroke="#838799" stroke-width="1.5" stroke-linecap="round" stroke-linejoin="round"/>
</svg>
