<svg width="15" height="16" viewBox="0 0 15 16" fill="none" xmlns="http://www.w3.org/2000/svg">
<path fill-rule="evenodd" clip-rule="evenodd" d="M0.361597 11.7373L0.416491 11.6779L3.32587 8.67124C3.60034 8.39431 4.0395 8.39431 4.31396 8.67124C4.58844 8.94817 4.58844 9.40313 4.31396 9.68006L2.53906 11.5197H14.3413C14.7072 11.5197 15 11.8362 15 12.2318C15 12.6274 14.7072 12.9439 14.3413 12.9439H2.53906L4.31396 14.7835C4.58844 15.0604 4.58844 15.5154 4.31396 15.7923C4.0395 16.0692 3.60034 16.0692 3.32587 15.7923L0.361597 12.7461C0.233511 12.6076 0.160319 12.4296 0.160319 12.2318C0.160319 12.034 0.233511 11.8559 0.361597 11.7373ZM10.8282 1.21409C10.5537 0.937162 10.5537 0.482205 10.8282 0.205276C11.1027 -0.0716553 11.5418 -0.0716553 11.8163 0.225056L14.7806 3.27129C14.9087 3.40975 14.9819 3.58778 14.9819 3.78559C14.9819 3.98339 14.9087 4.16142 14.7806 4.2801L14.744 4.31966L14.7257 4.33945L11.8163 7.32633C11.5418 7.60326 11.1027 7.60326 10.8282 7.32633C10.5537 7.0494 10.5537 6.59445 10.8282 6.31752L12.6031 4.47791L0.800911 4.47791C0.434951 4.47791 0.142183 4.16142 0.142183 3.76581C0.142183 3.37019 0.434951 3.0537 0.800911 3.0537L12.6031 3.0537L10.8282 1.21409Z" fill="#838799"/>
</svg>
