<svg width="36" height="36" viewBox="0 0 36 36" fill="none" xmlns="http://www.w3.org/2000/svg">
<mask id="path-1-inside-1_253_1482" fill="white">
<path d="M0 8C0 3.58172 3.58172 0 8 0H36V36H8C3.58172 36 0 32.4183 0 28V8Z"/>
</mask>
<path d="M0 8C0 3.58172 3.58172 0 8 0H36V36H8C3.58172 36 0 32.4183 0 28V8Z" fill="white"/>
<path d="M23 22.1667L18.8333 18L23 13.8334M17.1667 22.1667L13 18L17.1667 13.8334" stroke="#141519" stroke-width="1.5" stroke-linecap="round" stroke-linejoin="round"/>
<path d="M-1 8C-1 3.02944 3.02944 -1 8 -1H36V1H8C4.13401 1 1 4.13401 1 8H-1ZM36 37H8C3.02944 37 -1 32.9706 -1 28H1C1 31.866 4.13401 35 8 35H36V37ZM8 37C3.02944 37 -1 32.9706 -1 28V8C-1 3.02944 3.02944 -1 8 -1V1C4.13401 1 1 4.13401 1 8V28C1 31.866 4.13401 35 8 35V37ZM36 0V36V0Z" fill="#DCDEE6" mask="url(#path-1-inside-1_253_1482)"/>
</svg>
