<svg width="210" height="236" viewBox="0 0 210 236" fill="none" xmlns="http://www.w3.org/2000/svg">
<path fill-rule="evenodd" clip-rule="evenodd" d="M22.2549 77.3824C29.3742 52.7864 39.317 27.0885 62.6836 16.572C85.7789 6.17765 111.026 16.7104 134.174 27.0117C159.18 38.1402 188.687 49.0249 195.259 75.5708C201.956 102.621 182.691 127.793 164.312 148.741C146.937 168.546 125.113 184.119 98.7831 185.538C70.0945 187.085 38.7977 179.846 22.2097 156.403C6.19356 133.767 14.5503 104 22.2549 77.3824Z" fill="#F6F7F9"/>
<g filter="url(#filter0_ii_917_156)">
<path d="M143.256 86.541C143.452 87.137 143.557 87.7682 143.557 88.4161V122.118C143.557 124.568 142.065 126.78 139.767 127.742L107.018 141.437C105.454 142.091 103.686 142.091 102.122 141.437L69.3732 127.742C67.0747 126.78 65.5833 124.568 65.5833 122.118V88.4161C65.5833 87.7682 65.6876 87.137 65.8836 86.541L104.57 102.72L143.256 86.541Z" fill="#DCDEE6"/>
</g>
<g filter="url(#filter1_ii_917_156)">
<path d="M139.626 83.9422C141.099 83.3261 141.099 81.2689 139.626 80.6528L105.28 66.2904C104.828 66.1011 104.316 66.1011 103.863 66.2904L69.5182 80.6528C68.045 81.2689 68.045 83.3261 69.5182 83.9422L103.863 98.3046C104.316 98.4939 104.828 98.4939 105.28 98.3046L139.626 83.9422Z" fill="#DCDEE6"/>
</g>
<path d="M32.0423 225.182V226.526H26.2883V225.182H32.0423ZM39.9818 225.182V226.526H34.2278V225.182H39.9818ZM53.3799 230.922H51.7839L46.9819 223.656V230.922H45.3859V221.178H46.9819L51.7839 228.43V221.178H53.3799V230.922ZM58.5718 231.048C57.8438 231.048 57.1858 230.885 56.5978 230.558C56.0098 230.222 55.5478 229.755 55.2118 229.158C54.8758 228.551 54.7078 227.851 54.7078 227.058C54.7078 226.274 54.8804 225.579 55.2258 224.972C55.5711 224.365 56.0424 223.899 56.6398 223.572C57.2371 223.245 57.9044 223.082 58.6418 223.082C59.3791 223.082 60.0464 223.245 60.6438 223.572C61.2411 223.899 61.7124 224.365 62.0578 224.972C62.4031 225.579 62.5758 226.274 62.5758 227.058C62.5758 227.842 62.3984 228.537 62.0438 229.144C61.6891 229.751 61.2038 230.222 60.5878 230.558C59.9811 230.885 59.3091 231.048 58.5718 231.048ZM58.5718 229.662C58.9824 229.662 59.3651 229.564 59.7198 229.368C60.0838 229.172 60.3778 228.878 60.6018 228.486C60.8258 228.094 60.9378 227.618 60.9378 227.058C60.9378 226.498 60.8304 226.027 60.6158 225.644C60.4011 225.252 60.1164 224.958 59.7618 224.762C59.4071 224.566 59.0244 224.468 58.6138 224.468C58.2031 224.468 57.8204 224.566 57.4658 224.762C57.1204 224.958 56.8451 225.252 56.6398 225.644C56.4344 226.027 56.3318 226.498 56.3318 227.058C56.3318 227.889 56.5418 228.533 56.9618 228.99C57.3911 229.438 57.9278 229.662 58.5718 229.662ZM70.4962 231.02C69.8429 231.02 69.2549 230.908 68.7322 230.684C68.2096 230.451 67.7989 230.124 67.5002 229.704C67.2016 229.284 67.0522 228.794 67.0522 228.234H68.7602C68.7976 228.654 68.9609 228.999 69.2502 229.27C69.5489 229.541 69.9642 229.676 70.4962 229.676C71.0469 229.676 71.4762 229.545 71.7842 229.284C72.0922 229.013 72.2462 228.668 72.2462 228.248C72.2462 227.921 72.1482 227.655 71.9522 227.45C71.7656 227.245 71.5276 227.086 71.2382 226.974C70.9582 226.862 70.5662 226.741 70.0622 226.61C69.4276 226.442 68.9096 226.274 68.5082 226.106C68.1162 225.929 67.7802 225.658 67.5002 225.294C67.2202 224.93 67.0802 224.445 67.0802 223.838C67.0802 223.278 67.2202 222.788 67.5002 222.368C67.7802 221.948 68.1722 221.626 68.6762 221.402C69.1802 221.178 69.7636 221.066 70.4262 221.066C71.3689 221.066 72.1389 221.304 72.7362 221.78C73.3429 222.247 73.6789 222.891 73.7442 223.712H71.9802C71.9522 223.357 71.7842 223.054 71.4762 222.802C71.1682 222.55 70.7622 222.424 70.2582 222.424C69.8009 222.424 69.4276 222.541 69.1382 222.774C68.8489 223.007 68.7042 223.343 68.7042 223.782C68.7042 224.081 68.7929 224.328 68.9702 224.524C69.1569 224.711 69.3902 224.86 69.6702 224.972C69.9502 225.084 70.3329 225.205 70.8182 225.336C71.4622 225.513 71.9849 225.691 72.3862 225.868C72.7969 226.045 73.1422 226.321 73.4222 226.694C73.7116 227.058 73.8562 227.548 73.8562 228.164C73.8562 228.659 73.7209 229.125 73.4502 229.564C73.1889 230.003 72.8016 230.357 72.2882 230.628C71.7842 230.889 71.1869 231.02 70.4962 231.02ZM77.3515 224.51V228.78C77.3515 229.069 77.4168 229.279 77.5475 229.41C77.6875 229.531 77.9208 229.592 78.2475 229.592H79.2275V230.922H77.9675C77.2488 230.922 76.6981 230.754 76.3155 230.418C75.9328 230.082 75.7415 229.536 75.7415 228.78V224.51H74.8315V223.208H75.7415V221.29H77.3515V223.208H79.2275V224.51H77.3515ZM83.7944 231.048C83.0664 231.048 82.4084 230.885 81.8204 230.558C81.2324 230.222 80.7704 229.755 80.4344 229.158C80.0984 228.551 79.9304 227.851 79.9304 227.058C79.9304 226.274 80.1031 225.579 80.4484 224.972C80.7938 224.365 81.2651 223.899 81.8624 223.572C82.4598 223.245 83.1271 223.082 83.8644 223.082C84.6018 223.082 85.2691 223.245 85.8664 223.572C86.4638 223.899 86.9351 224.365 87.2804 224.972C87.6258 225.579 87.7984 226.274 87.7984 227.058C87.7984 227.842 87.6211 228.537 87.2664 229.144C86.9118 229.751 86.4264 230.222 85.8104 230.558C85.2038 230.885 84.5318 231.048 83.7944 231.048ZM83.7944 229.662C84.2051 229.662 84.5878 229.564 84.9424 229.368C85.3064 229.172 85.6004 228.878 85.8244 228.486C86.0484 228.094 86.1604 227.618 86.1604 227.058C86.1604 226.498 86.0531 226.027 85.8384 225.644C85.6238 225.252 85.3391 224.958 84.9844 224.762C84.6298 224.566 84.2471 224.468 83.8364 224.468C83.4258 224.468 83.0431 224.566 82.6884 224.762C82.3431 224.958 82.0678 225.252 81.8624 225.644C81.6571 226.027 81.5544 226.498 81.5544 227.058C81.5544 227.889 81.7644 228.533 82.1844 228.99C82.6138 229.438 83.1504 229.662 83.7944 229.662ZM90.7222 224.328C90.9555 223.936 91.2635 223.633 91.6462 223.418C92.0382 223.194 92.5002 223.082 93.0322 223.082V224.734H92.6262C92.0008 224.734 91.5248 224.893 91.1982 225.21C90.8808 225.527 90.7222 226.078 90.7222 226.862V230.922H89.1262V223.208H90.7222V224.328ZM101.319 226.876C101.319 227.165 101.301 227.427 101.263 227.66H95.3692C95.4159 228.276 95.6446 228.771 96.0552 229.144C96.4659 229.517 96.9699 229.704 97.5672 229.704C98.4259 229.704 99.0326 229.345 99.3872 228.626H101.109C100.876 229.335 100.451 229.919 99.8352 230.376C99.2286 230.824 98.4726 231.048 97.5672 231.048C96.8299 231.048 96.1672 230.885 95.5792 230.558C95.0006 230.222 94.5432 229.755 94.2072 229.158C93.8806 228.551 93.7172 227.851 93.7172 227.058C93.7172 226.265 93.8759 225.569 94.1932 224.972C94.5199 224.365 94.9726 223.899 95.5512 223.572C96.1392 223.245 96.8112 223.082 97.5672 223.082C98.2952 223.082 98.9439 223.241 99.5132 223.558C100.083 223.875 100.526 224.323 100.843 224.902C101.161 225.471 101.319 226.129 101.319 226.876ZM99.6532 226.372C99.6439 225.784 99.4339 225.313 99.0232 224.958C98.6126 224.603 98.1039 224.426 97.4972 224.426C96.9466 224.426 96.4752 224.603 96.0832 224.958C95.6912 225.303 95.4579 225.775 95.3832 226.372H99.6532ZM105.44 231.048C104.833 231.048 104.287 230.941 103.802 230.726C103.326 230.502 102.948 230.203 102.668 229.83C102.388 229.447 102.239 229.023 102.22 228.556H103.872C103.9 228.883 104.054 229.158 104.334 229.382C104.623 229.597 104.983 229.704 105.412 229.704C105.86 229.704 106.205 229.62 106.448 229.452C106.7 229.275 106.826 229.051 106.826 228.78C106.826 228.491 106.686 228.276 106.406 228.136C106.135 227.996 105.701 227.842 105.104 227.674C104.525 227.515 104.054 227.361 103.69 227.212C103.326 227.063 103.009 226.834 102.738 226.526C102.477 226.218 102.346 225.812 102.346 225.308C102.346 224.897 102.467 224.524 102.71 224.188C102.953 223.843 103.298 223.572 103.746 223.376C104.203 223.18 104.726 223.082 105.314 223.082C106.191 223.082 106.896 223.306 107.428 223.754C107.969 224.193 108.259 224.795 108.296 225.56H106.7C106.672 225.215 106.532 224.939 106.28 224.734C106.028 224.529 105.687 224.426 105.258 224.426C104.838 224.426 104.516 224.505 104.292 224.664C104.068 224.823 103.956 225.033 103.956 225.294C103.956 225.499 104.031 225.672 104.18 225.812C104.329 225.952 104.511 226.064 104.726 226.148C104.941 226.223 105.258 226.321 105.678 226.442C106.238 226.591 106.695 226.745 107.05 226.904C107.414 227.053 107.727 227.277 107.988 227.576C108.249 227.875 108.385 228.271 108.394 228.766C108.394 229.205 108.273 229.597 108.03 229.942C107.787 230.287 107.442 230.558 106.994 230.754C106.555 230.95 106.037 231.048 105.44 231.048ZM114.851 224.328C115.084 223.936 115.392 223.633 115.775 223.418C116.167 223.194 116.629 223.082 117.161 223.082V224.734H116.755C116.13 224.734 115.654 224.893 115.327 225.21C115.01 225.527 114.851 226.078 114.851 226.862V230.922H113.255V223.208H114.851V224.328ZM125.448 226.876C125.448 227.165 125.429 227.427 125.392 227.66H119.498C119.545 228.276 119.773 228.771 120.184 229.144C120.595 229.517 121.099 229.704 121.696 229.704C122.555 229.704 123.161 229.345 123.516 228.626H125.238C125.005 229.335 124.58 229.919 123.964 230.376C123.357 230.824 122.601 231.048 121.696 231.048C120.959 231.048 120.296 230.885 119.708 230.558C119.129 230.222 118.672 229.755 118.336 229.158C118.009 228.551 117.846 227.851 117.846 227.058C117.846 226.265 118.005 225.569 118.322 224.972C118.649 224.365 119.101 223.899 119.68 223.572C120.268 223.245 120.94 223.082 121.696 223.082C122.424 223.082 123.073 223.241 123.642 223.558C124.211 223.875 124.655 224.323 124.972 224.902C125.289 225.471 125.448 226.129 125.448 226.876ZM123.782 226.372C123.773 225.784 123.563 225.313 123.152 224.958C122.741 224.603 122.233 224.426 121.626 224.426C121.075 224.426 120.604 224.603 120.212 224.958C119.82 225.303 119.587 225.775 119.512 226.372H123.782ZM129.877 223.082C130.474 223.082 131.001 223.203 131.459 223.446C131.925 223.679 132.289 223.973 132.551 224.328V223.208H134.161V231.048C134.161 231.757 134.011 232.387 133.713 232.938C133.414 233.498 132.98 233.937 132.411 234.254C131.851 234.571 131.179 234.73 130.395 234.73C129.349 234.73 128.481 234.483 127.791 233.988C127.1 233.503 126.708 232.84 126.615 232H128.197C128.318 232.401 128.575 232.723 128.967 232.966C129.368 233.218 129.844 233.344 130.395 233.344C131.039 233.344 131.557 233.148 131.949 232.756C132.35 232.364 132.551 231.795 132.551 231.048V229.76C132.28 230.124 131.911 230.432 131.445 230.684C130.987 230.927 130.465 231.048 129.877 231.048C129.205 231.048 128.589 230.88 128.029 230.544C127.478 230.199 127.039 229.723 126.713 229.116C126.395 228.5 126.237 227.805 126.237 227.03C126.237 226.255 126.395 225.569 126.713 224.972C127.039 224.375 127.478 223.913 128.029 223.586C128.589 223.25 129.205 223.082 129.877 223.082ZM132.551 227.058C132.551 226.526 132.439 226.064 132.215 225.672C132 225.28 131.715 224.981 131.361 224.776C131.006 224.571 130.623 224.468 130.213 224.468C129.802 224.468 129.419 224.571 129.065 224.776C128.71 224.972 128.421 225.266 128.197 225.658C127.982 226.041 127.875 226.498 127.875 227.03C127.875 227.562 127.982 228.029 128.197 228.43C128.421 228.831 128.71 229.139 129.065 229.354C129.429 229.559 129.811 229.662 130.213 229.662C130.623 229.662 131.006 229.559 131.361 229.354C131.715 229.149 132 228.85 132.215 228.458C132.439 228.057 132.551 227.59 132.551 227.058ZM136.819 222.186C136.53 222.186 136.287 222.088 136.091 221.892C135.895 221.696 135.797 221.453 135.797 221.164C135.797 220.875 135.895 220.632 136.091 220.436C136.287 220.24 136.53 220.142 136.819 220.142C137.099 220.142 137.337 220.24 137.533 220.436C137.729 220.632 137.827 220.875 137.827 221.164C137.827 221.453 137.729 221.696 137.533 221.892C137.337 222.088 137.099 222.186 136.819 222.186ZM137.603 223.208V230.922H136.007V223.208H137.603ZM142.248 231.048C141.642 231.048 141.096 230.941 140.61 230.726C140.134 230.502 139.756 230.203 139.476 229.83C139.196 229.447 139.047 229.023 139.028 228.556H140.68C140.708 228.883 140.862 229.158 141.142 229.382C141.432 229.597 141.791 229.704 142.22 229.704C142.668 229.704 143.014 229.62 143.256 229.452C143.508 229.275 143.634 229.051 143.634 228.78C143.634 228.491 143.494 228.276 143.214 228.136C142.944 227.996 142.51 227.842 141.912 227.674C141.334 227.515 140.862 227.361 140.498 227.212C140.134 227.063 139.817 226.834 139.546 226.526C139.285 226.218 139.154 225.812 139.154 225.308C139.154 224.897 139.276 224.524 139.518 224.188C139.761 223.843 140.106 223.572 140.554 223.376C141.012 223.18 141.534 223.082 142.122 223.082C143 223.082 143.704 223.306 144.236 223.754C144.778 224.193 145.067 224.795 145.104 225.56H143.508C143.48 225.215 143.34 224.939 143.088 224.734C142.836 224.529 142.496 224.426 142.066 224.426C141.646 224.426 141.324 224.505 141.1 224.664C140.876 224.823 140.764 225.033 140.764 225.294C140.764 225.499 140.839 225.672 140.988 225.812C141.138 225.952 141.32 226.064 141.534 226.148C141.749 226.223 142.066 226.321 142.486 226.442C143.046 226.591 143.504 226.745 143.858 226.904C144.222 227.053 144.535 227.277 144.796 227.576C145.058 227.875 145.193 228.271 145.202 228.766C145.202 229.205 145.081 229.597 144.838 229.942C144.596 230.287 144.25 230.558 143.802 230.754C143.364 230.95 142.846 231.048 142.248 231.048ZM148.539 224.51V228.78C148.539 229.069 148.604 229.279 148.735 229.41C148.875 229.531 149.108 229.592 149.435 229.592H150.415V230.922H149.155C148.436 230.922 147.886 230.754 147.503 230.418C147.12 230.082 146.929 229.536 146.929 228.78V224.51H146.019V223.208H146.929V221.29H148.539V223.208H150.415V224.51H148.539ZM158.706 226.876C158.706 227.165 158.687 227.427 158.65 227.66H152.756C152.803 228.276 153.031 228.771 153.442 229.144C153.853 229.517 154.357 229.704 154.954 229.704C155.813 229.704 156.419 229.345 156.774 228.626H158.496C158.263 229.335 157.838 229.919 157.222 230.376C156.615 230.824 155.859 231.048 154.954 231.048C154.217 231.048 153.554 230.885 152.966 230.558C152.387 230.222 151.93 229.755 151.594 229.158C151.267 228.551 151.104 227.851 151.104 227.058C151.104 226.265 151.263 225.569 151.58 224.972C151.907 224.365 152.359 223.899 152.938 223.572C153.526 223.245 154.198 223.082 154.954 223.082C155.682 223.082 156.331 223.241 156.9 223.558C157.469 223.875 157.913 224.323 158.23 224.902C158.547 225.471 158.706 226.129 158.706 226.876ZM157.04 226.372C157.031 225.784 156.821 225.313 156.41 224.958C155.999 224.603 155.491 224.426 154.884 224.426C154.333 224.426 153.862 224.603 153.47 224.958C153.078 225.303 152.845 225.775 152.77 226.372H157.04ZM161.623 224.328C161.856 223.936 162.164 223.633 162.547 223.418C162.939 223.194 163.401 223.082 163.933 223.082V224.734H163.527C162.901 224.734 162.425 224.893 162.099 225.21C161.781 225.527 161.623 226.078 161.623 226.862V230.922H160.027V223.208H161.623V224.328ZM174.458 225.182V226.526H168.704V225.182H174.458ZM182.398 225.182V226.526H176.644V225.182H182.398Z" fill="#838799"/>
<defs>
<filter id="filter0_ii_917_156" x="65.584" y="86.541" width="85.9727" height="63.3867" filterUnits="userSpaceOnUse" color-interpolation-filters="sRGB">
<feFlood flood-opacity="0" result="BackgroundImageFix"/>
<feBlend mode="normal" in="SourceGraphic" in2="BackgroundImageFix" result="shape"/>
<feColorMatrix in="SourceAlpha" type="matrix" values="0 0 0 0 0 0 0 0 0 0 0 0 0 0 0 0 0 0 127 0" result="hardAlpha"/>
<feOffset dx="8" dy="8"/>
<feGaussianBlur stdDeviation="8"/>
<feComposite in2="hardAlpha" operator="arithmetic" k2="-1" k3="1"/>
<feColorMatrix type="matrix" values="0 0 0 0 0 0 0 0 0 0.0352941 0 0 0 0 0.137255 0 0 0 0.1 0"/>
<feBlend mode="normal" in2="shape" result="effect1_innerShadow_917_156"/>
<feColorMatrix in="SourceAlpha" type="matrix" values="0 0 0 0 0 0 0 0 0 0 0 0 0 0 0 0 0 0 127 0" result="hardAlpha"/>
<feOffset dx="4" dy="4"/>
<feGaussianBlur stdDeviation="2"/>
<feComposite in2="hardAlpha" operator="arithmetic" k2="-1" k3="1"/>
<feColorMatrix type="matrix" values="0 0 0 0 0 0 0 0 0 0.0352941 0 0 0 0 0.137255 0 0 0 0.1 0"/>
<feBlend mode="normal" in2="effect1_innerShadow_917_156" result="effect2_innerShadow_917_156"/>
</filter>
<filter id="filter1_ii_917_156" x="68.4141" y="66.1484" width="80.3164" height="40.2979" filterUnits="userSpaceOnUse" color-interpolation-filters="sRGB">
<feFlood flood-opacity="0" result="BackgroundImageFix"/>
<feBlend mode="normal" in="SourceGraphic" in2="BackgroundImageFix" result="shape"/>
<feColorMatrix in="SourceAlpha" type="matrix" values="0 0 0 0 0 0 0 0 0 0 0 0 0 0 0 0 0 0 127 0" result="hardAlpha"/>
<feOffset dx="8" dy="8"/>
<feGaussianBlur stdDeviation="8"/>
<feComposite in2="hardAlpha" operator="arithmetic" k2="-1" k3="1"/>
<feColorMatrix type="matrix" values="0 0 0 0 0 0 0 0 0 0.0352941 0 0 0 0 0.137255 0 0 0 0.1 0"/>
<feBlend mode="normal" in2="shape" result="effect1_innerShadow_917_156"/>
<feColorMatrix in="SourceAlpha" type="matrix" values="0 0 0 0 0 0 0 0 0 0 0 0 0 0 0 0 0 0 127 0" result="hardAlpha"/>
<feOffset dx="4" dy="4"/>
<feGaussianBlur stdDeviation="2"/>
<feComposite in2="hardAlpha" operator="arithmetic" k2="-1" k3="1"/>
<feColorMatrix type="matrix" values="0 0 0 0 0 0 0 0 0 0.0352941 0 0 0 0 0.137255 0 0 0 0.1 0"/>
<feBlend mode="normal" in2="effect1_innerShadow_917_156" result="effect2_innerShadow_917_156"/>
</filter>
</defs>
</svg>
