<?xml version="1.0" encoding="UTF-8"?>
<svg xmlns:xodm="http://www.corel.com/coreldraw/odm/2003" xmlns="http://www.w3.org/2000/svg" xmlns:xlink="http://www.w3.org/1999/xlink" version="1.1" id="Layer_1" x="0px" y="0px" viewBox="0 0 2500 2500" style="enable-background:new 0 0 2500 2500;" xml:space="preserve">
<style type="text/css">
	.st0{fill:none;}
	.st1{fill:#0062DF;}
</style>
<g id="Layer_x0020_1">
	<rect y="0" class="st0" width="2500" height="2500"></rect>
	<rect y="0" class="st0" width="2500" height="2500"></rect>
	<g id="_1942027927504">
		<path class="st1" d="M1154,1813.6l280.6-851.7l134.9,43.9L1472.8,687H2307c151.3,0,230.4,135.6,175.8,301.9l-52.7,160.7    c-0.6,1.9-1.3,3.8-2.5,6.3l-2.5,5.7c-14.4,39.5-34.5,77.2-59.6,111.1c-79.1,107.9-200.2,178.2-308.2,178.9h-8.2h-411.1    l-118.6,362.2L1154,1813.6L1154,1813.6z M1700.6,1263.2h222.2c55.9,0,117.4-49.6,136.8-110.5l54.6-166.3    c20.1-60.9-8.8-110.5-64.6-110.5h-222.2L1700.6,1263.2L1700.6,1263.2z M191.8,1813.6c-9.4-0.6-18.8-1.2-28.2-2.5    c-15.7-1.9-31.4-5.7-45.8-11.3c-29.5-11.3-55.2-26.4-75.3-51.5c-11.9-15.1-21.3-32.6-28.2-50.8c-3.1-9.4-6.3-18.8-8.2-28.2    c-10.7-48.9-6.3-97.9,6.9-145.6c1.2-4.4,6.9-22,6.9-22L287.2,687h369.1l-271.8,827.3c-15.1,45.2-3.1,85.4,28.9,102.3    c10.7,5.7,22,8.8,33.9,8.2h182.7L938,686.4h417.4l-305.7,318.9l165.1-43.9L934.3,1813L191.8,1813.6L191.8,1813.6z"></path>
	</g>
</g>
</svg>
